<?xml version="1.0" encoding="UTF-8" standalone="no"?>
<svg id="svg2" xmlns="http://www.w3.org/2000/svg" viewBox="0 0 900 900" version="1.1">
    <g id="g4" fill="red" transform="matrix(1.7656463,0,0,1.7656463,324.90716,255.00942)">
        <path xmlns="http://www.w3.org/2000/svg" id="path444"
            d="m33.2-114s-14.8,1.8-19.2,3-23,8.8-26,10.8c0,0-13.4,5.4-30.4,25.4,0,0,7.6-3.4,9.8-6.2,0,0,13.6-12.6,13.4-10,0,0,12.2-8.6,11.6-6.4,0,0,24.4-11.2,22.4-8,0,0,21.6-4.6,20.6-2.6,0,0,18.8,4.4,16,4.6,0,0-5.8,1.2,0.6,4.8,0,0-3.4,4.4-8.8,0.4s-2.4-1.8-7.4-0.8c0,0-2.6,0.8-7.2-3.2,0,0-5.6-4.6-14.4-1,0,0-30.6,12.6-32.6,13.2,0,0-3.6,2.8-6,6.4,0,0-5.8,4.4-8.8,5.8,0,0-12.8,11.6-14,13,0,0-3.4,5.2-4.2,5.6,0,0,6.4-3.8,8.4-5.8,0,0,14-10,19.4-10.8,0,0,4.4-3,5.2-4.4,0,0,14.4-9.2,18.6-9.2,0,0,9.2,5.2,11.6-1.8,0,0,5.8-1.8,11.4-0.6,0,0,3.2-2.6,2.4-4.8,0,0,1.6-1.8,2.6,2,0,0,3.4,3.6,8.2,1.6,0,0,4-0.2,2,2.2,0,0-4.4,3.8-16.2,4,0,0-12.4,0.6-28.8,8.2,0,0-29.8,10.4-39,20.8,0,0-6.4,8.8-11.8,10,0,0-5.8,0.8-11.8,8.2,0,0,9.8-5.8,18.8-5.8,0,0,4-2.4,0.2,1.2,0,0-3.6,7.6-2,13,0,0-0.6,5.2-1.4,6.8,0,0-7.8,12.8-7.8,15.2s1.2,12.2,1.6,12.8-1-1.6,2.8,0.8,6.6,4,7.4,6.8-2-5.4-2.2-7.2-4.4-9-3.6-11.4c0,0,1,1,1.8,2.4,0,0-0.6-0.6,0-4.2,0,0,0.8-5.2,2.2-8.4s3.4-7,3.8-7.8,0.4-6.6,1.8-4l3.4,2.6s-2.8-2.6-0.6-4.8c0,0-1-5.6,0.8-8.2,0,0,7-8.4,8.6-9.4s0.2-0.6,0.2-0.6,6-4.2,0.2-2.6c0,0-4,1.6-7,1.6,0,0-7.6,2-3.6-2.2s14-9.6,17.8-9.4l0.8,1.6,11.2-2.4-1.2,0.8s-0.2-0.2,4-0.6,10,1,11.4-0.8,4.8-2.8,4.4-1.4-0.6,3.4-0.6,3.4,5-5.8,4.4-3.6-8.8,7.4-10.2,13.6l10.4-8.2,3.6-3s3.6,2.2,3.8,0.6,4.8-7.4,6-7.2,3.2-2.6,3,0,7.4,8,7.4,8,3.2-1.8,4.6-0.4,5.6-19.8,5.6-19.8l25-10.6,43.6-3.4-16.999-6.8-61.001-11.4z" />
    </g>
</svg>